<svg xmlns="http://www.w3.org/2000/svg" width="400" height="400" viewBox="0 0 400 400" fill="none"><path d="M118.03 175.03C118.287 174.998 118.523 174.874 118.695 174.68C118.866 174.486 118.961 174.236 118.961 173.977C118.961 173.718 118.866 173.468 118.695 173.274C118.523 173.08 118.287 172.955 118.03 172.924C117.773 172.955 117.536 173.08 117.364 173.274C117.193 173.468 117.098 173.718 117.098 173.977C117.098 174.236 117.193 174.486 117.364 174.68C117.536 174.874 117.773 174.998 118.03 175.03Z" fill="#F56B0C"></path><path d="M359.405 268.777C360.391 268.724 357.776 286.967 357.459 288.654C356.416 294.313 354.016 303.499 347.85 304.569C337.86 306.306 331.839 297.938 328.829 290.442C328.034 288.458 324.461 270.53 327.3 270.346L359.405 268.777Z" fill="#F56B0C"></path><path d="M69.8977 301.793C72.1701 294.551 76.5857 287.867 76.9394 280.309C77.0537 279.559 77.0036 278.793 76.7926 278.064C76.5816 277.336 76.2148 276.662 75.7175 276.089C73.652 274.45 70.3062 275.309 68.3769 277.051C68.4305 282.36 67.0739 287.588 64.4458 292.201C64.3713 295.142 64.3453 298.083 64.368 301.025C62.6191 301.094 60.8719 301.322 59.7543 301.462C63.6447 290.882 66.7235 280.038 66.8915 268.828C66.9481 265.198 65.979 261.557 62.4104 260.895C61.5553 260.872 60.7049 261.03 59.9156 261.36C59.1264 261.69 58.4162 262.184 57.8321 262.809C54.6388 265.805 52.4608 269.724 51.6021 274.018C50.1006 283.428 50.1155 293.017 51.6463 302.422L47.579 302.903C48.1614 299.821 48.6919 296.734 49.1705 293.642C46.7496 284.905 48.4879 274.897 52.29 266.724C53.1743 254.992 53.4393 243.221 53.084 231.461C52.7586 220.785 51.6869 209.446 45.2217 200.882C42.4489 197.211 39.7026 197.623 37.5063 201.711C30.3338 215.071 31.6883 231.199 33.2162 246.274C35.1614 265.495 37.1915 285.074 44.12 303.133C42.0278 303.151 39.9561 303.548 38.005 304.304C36.4683 305.229 36.9263 308.813 43.2376 310.019C49.0012 311.126 54.9131 311.227 60.711 310.316C63.3335 309.901 72.8739 308.498 71.606 303.718C71.4876 303.288 71.272 302.891 70.9759 302.557C70.6797 302.223 70.3109 301.961 69.8977 301.793Z" fill="#F56B0C"></path><path d="M109.64 292.35C108.25 290.044 107.261 287.519 106.715 284.882C105.377 279.978 104.583 274.941 104.348 269.863C101.062 269.76 97.8151 269.12 94.7364 267.967C86.3614 264.837 83.6186 256.941 82.0041 248.667C80.4355 240.663 79.9421 229.988 84.7115 222.911C83.788 220.958 82.7242 219.075 81.5284 217.277C77.3338 223.13 76.0906 242.932 76.0075 250.092C75.7541 264.611 79.2476 278.949 86.1509 291.724C87.4521 294.156 89.1298 296.367 91.1218 298.276C93.699 300.323 96.6748 301.812 99.8594 302.645C108.755 304.14 117.73 305.118 126.739 305.572C123.06 304.841 119.601 303.266 116.634 300.972C113.667 298.678 111.273 295.726 109.64 292.35ZM109.23 298.955C93.1643 293.513 88.1209 285.534 86.5046 268.908C86.5046 268.48 87.1589 268.392 87.2385 268.804C88.5418 275.524 89.3499 282.463 93.6948 288.024C97.7462 293.207 103.725 295.607 109.474 298.36C109.817 298.482 109.571 299.07 109.232 298.955H109.23Z" fill="#F56B0C"></path><path d="M111.451 101.727C111.296 103.292 111.423 104.872 111.826 106.392C112.135 108.18 112.553 109.948 113.076 111.686C113.174 111.877 113.335 112.027 113.532 112.112C113.728 112.197 113.948 112.211 114.154 112.153C114.36 112.094 114.539 111.966 114.661 111.79C114.783 111.614 114.84 111.401 114.823 111.188C114.387 107.99 112.866 104.998 112.878 101.727C112.889 100.756 111.548 100.816 111.451 101.727Z" fill="#4B187A"></path><path d="M121.096 74.2678C120.063 72.3844 117.154 73.0175 116.063 74.4959C115.653 75.0529 116.429 75.6807 116.937 75.3695C117.379 75.05 117.909 74.8766 118.455 74.8734C119 74.8702 119.533 75.0375 119.978 75.3518C120.131 75.4364 120.307 75.4697 120.48 75.4468C120.653 75.4238 120.814 75.3458 120.939 75.2243C121.064 75.1028 121.147 74.9442 121.176 74.7719C121.204 74.5997 121.176 74.4229 121.096 74.2678Z" fill="#4B187A"></path><path d="M105.762 75.1517C105.559 75.707 106.234 76.1137 106.698 75.8767C107.223 75.5261 107.832 75.3205 108.463 75.2807C109.094 75.241 109.724 75.3685 110.289 75.6504C110.415 75.6784 110.545 75.6657 110.663 75.6143C110.78 75.5628 110.879 75.4751 110.943 75.3641C111.007 75.253 111.034 75.1244 111.02 74.9968C111.007 74.8693 110.952 74.7494 110.866 74.6548C109.375 73.0509 106.489 73.18 105.762 75.1517Z" fill="#4B187A"></path><path d="M109.013 89.5729C108.966 89.4943 108.905 89.4257 108.832 89.3708C108.759 89.3159 108.676 89.276 108.587 89.2533C108.499 89.2305 108.407 89.2254 108.316 89.2382C108.226 89.2511 108.139 89.2816 108.06 89.328C107.982 89.3745 107.913 89.4359 107.858 89.5089C107.803 89.5819 107.763 89.665 107.741 89.7534C107.718 89.8419 107.713 89.9339 107.726 90.0243C107.738 90.1147 107.769 90.2017 107.815 90.2803C108.087 90.8517 108.474 91.3603 108.953 91.774C109.431 92.1877 109.991 92.4975 110.595 92.6835C111.819 93.0796 113.501 93.5023 114.465 92.413C114.884 91.9408 114.641 90.9823 113.897 91.0495C112.281 91.1857 109.975 91.1609 109.013 89.5729Z" fill="#4B187A"></path><path d="M149.606 162.938C141.742 167.463 135.361 156.151 133.878 150.016C133.667 149.143 132.316 149.5 132.498 150.4C133.987 157.813 141.471 169.438 150.426 164.379C150.549 164.243 150.626 164.071 150.646 163.888C150.665 163.706 150.627 163.522 150.536 163.362C150.445 163.203 150.307 163.076 150.14 163C149.973 162.923 149.786 162.902 149.606 162.938Z" fill="#4B187A"></path><path d="M158.656 135.049C158.285 128.734 166.931 125.954 171.762 127.186C171.925 127.217 172.094 127.185 172.236 127.097C172.377 127.008 172.48 126.871 172.524 126.71C172.568 126.55 172.551 126.379 172.475 126.23C172.4 126.082 172.271 125.968 172.115 125.91C166.236 123.635 156.731 127.908 156.907 135.04C156.927 136.202 158.724 136.194 158.656 135.049Z" fill="#4B187A"></path><path d="M161.968 148.845C163.173 149.006 163.716 147.254 162.499 146.957C161.338 146.85 160.227 146.43 159.284 145.744C158.668 144.899 158.36 143.868 158.411 142.824C158.284 141.732 158.383 140.626 158.702 139.574C159.02 138.523 159.551 137.547 160.262 136.709C160.784 136.106 160.069 134.972 159.388 135.521C158.207 136.537 157.316 137.849 156.806 139.323C156.297 140.796 156.187 142.378 156.488 143.908C156.874 147.141 158.978 148.444 161.968 148.845Z" fill="#4B187A"></path><path d="M170.015 144.144C171.802 138.308 167.992 132.472 165.044 133.118C164.257 133.295 164.414 134.642 165.235 134.543C166.345 134.407 167.956 137.521 168.128 138.168C168.597 139.962 168.627 141.843 168.214 143.65C168.167 143.883 168.211 144.124 168.335 144.326C168.459 144.528 168.655 144.675 168.884 144.738C169.113 144.8 169.357 144.774 169.566 144.664C169.776 144.553 169.937 144.367 170.015 144.144Z" fill="#4B187A"></path><path d="M174.043 139.609C176.245 137.277 174.66 132.973 172.805 130.969C172.158 130.271 171.224 131.273 171.783 131.991C172.628 133.082 173.121 134.405 173.198 135.783C173.265 136.944 172.805 137.959 172.779 139.086C172.784 139.23 172.831 139.369 172.913 139.487C172.996 139.605 173.11 139.697 173.243 139.752C173.376 139.808 173.522 139.823 173.664 139.798C173.806 139.773 173.937 139.707 174.043 139.609Z" fill="#4B187A"></path><path d="M178.734 136.849C179.795 134.138 178.367 130.794 176.584 128.732C175.912 127.954 174.848 129.056 175.475 129.843C177.164 131.965 177.012 134.087 176.952 136.605C176.925 137.723 178.39 137.724 178.734 136.849Z" fill="#4B187A"></path><path d="M189.437 109.625C190.571 109.495 191.631 108.998 192.456 108.209C193.281 107.421 193.825 106.384 194.006 105.257C194.084 104.304 192.547 103.858 192.153 104.749C191.932 105.517 191.533 106.222 190.988 106.806C190.444 107.389 189.768 107.836 189.018 108.109C188.845 108.187 188.706 108.325 188.625 108.497C188.545 108.669 188.528 108.863 188.579 109.046C188.629 109.229 188.744 109.388 188.901 109.494C189.058 109.6 189.248 109.646 189.437 109.625Z" fill="#4B187A"></path><path d="M188.982 98.0486C189.221 98.0486 189.454 97.9779 189.652 97.8454C189.851 97.7128 190.005 97.5245 190.097 97.3041C190.188 97.0837 190.212 96.8412 190.165 96.6073C190.119 96.3734 190.004 96.1585 189.835 95.9898C189.666 95.8211 189.452 95.7063 189.218 95.6597C188.984 95.6132 188.741 95.6371 188.521 95.7284C188.3 95.8196 188.112 95.9742 187.98 96.1725C187.847 96.3709 187.776 96.6041 187.776 96.8426C187.776 97.1624 187.903 97.4692 188.13 97.6954C188.356 97.9216 188.662 98.0486 188.982 98.0486Z" fill="#4B187A"></path><path d="M181.437 98.0576C181.722 98.0301 181.988 97.8972 182.181 97.6846C182.374 97.4721 182.481 97.1953 182.481 96.9082C182.481 96.6211 182.374 96.3442 182.181 96.1317C181.988 95.9192 181.722 95.7862 181.437 95.7587C181.151 95.7862 180.886 95.9192 180.692 96.1317C180.499 96.3442 180.392 96.6211 180.392 96.9082C180.392 97.1953 180.499 97.4721 180.692 97.6846C180.886 97.8972 181.151 98.0301 181.437 98.0576Z" fill="#4B187A"></path><path d="M191.98 94.2309C192.652 94.5015 193.025 93.5678 192.625 93.1204C191.826 92.4329 190.817 92.039 189.763 92.0039C188.71 91.9689 187.676 92.2948 186.834 92.9277C186.079 93.6155 187.217 94.7544 187.951 94.047C188.573 93.6999 189.28 93.5331 189.992 93.5656C190.703 93.5981 191.392 93.8285 191.98 94.2309Z" fill="#4B187A"></path><path d="M183.736 93.1647C183.02 92.6893 182.177 92.4415 181.317 92.4538C180.458 92.4661 179.622 92.738 178.92 93.2336C178.806 93.3535 178.744 93.5135 178.747 93.679C178.75 93.8445 178.818 94.0021 178.936 94.1178C179.38 94.5458 180.008 94.0489 181.21 94.0153C181.891 94.0613 182.564 94.1799 183.219 94.3689C183.372 94.4052 183.532 94.3865 183.672 94.3161C183.812 94.2457 183.922 94.1281 183.984 93.9841C184.046 93.8401 184.055 93.679 184.009 93.529C183.964 93.3791 183.867 93.2501 183.736 93.1647Z" fill="#4B187A"></path><path d="M185.681 104.077C185.775 104.022 185.851 103.939 185.899 103.841C185.948 103.742 185.966 103.631 185.952 103.523C185.937 103.414 185.892 103.311 185.82 103.228C185.748 103.145 185.654 103.085 185.548 103.055C185.226 103.002 184.929 103.055 184.614 102.984C183.076 102.808 184.202 101.338 184.632 99.5344C184.637 99.4308 184.61 99.3282 184.555 99.2408C184.499 99.1534 184.417 99.0855 184.321 99.0466C184.225 99.0077 184.119 98.9997 184.018 99.0237C183.918 99.0477 183.827 99.1026 183.758 99.1807C183.333 99.7725 183.032 100.444 182.874 101.156C182.567 101.776 182.487 102.483 182.648 103.156C182.785 103.417 182.973 103.648 183.2 103.836C183.427 104.024 183.69 104.165 183.972 104.251C184.254 104.336 184.55 104.365 184.844 104.336C185.137 104.306 185.422 104.218 185.681 104.077Z" fill="#4B187A"></path><path d="M129.92 146.808C128.662 154.206 128.96 161.785 130.794 169.062C131.004 169.831 132.106 169.497 131.973 168.738C130.761 161.547 130.467 154.231 131.1 146.966C131.151 146.329 130.016 146.172 129.92 146.808Z" fill="#4B187A"></path><path d="M96.572 86.3759C97.3572 86.7172 98.3174 86.5262 98.9912 87.2494C99.863 88.1867 99.58 93.7925 99.5942 95.4795C99.6222 99.8339 99.26 104.182 98.5119 108.472C98.3351 109.51 99.9266 109.957 100.103 108.909C101.421 101.281 101.513 93.4914 100.374 85.8347C100.341 85.7197 100.282 85.6138 100.202 85.5247C100.121 85.4357 100.022 85.3658 99.9115 85.3205C99.8006 85.2751 99.681 85.2553 99.5615 85.2626C99.4419 85.2699 99.3256 85.3041 99.2211 85.3626C96.8284 86.6836 96.4429 81.3873 98.1459 79.7444C98.6359 79.4823 99.1817 79.3416 99.7374 79.3342C100.298 79.5079 100.812 79.8066 101.241 80.2078C101.702 80.6286 102.562 80.0751 102.167 79.4916C101.904 79.1017 101.586 78.7516 101.223 78.4518C100.992 76.8582 101.084 75.2344 101.493 73.6771C101.827 70.8086 102.612 68.0107 103.819 65.387C104.15 64.6708 105.175 65.2013 105.023 65.9016C104.924 66.3631 104.846 66.837 104.735 67.3163C105.993 66.1145 107.646 65.4123 109.384 65.341C116.634 64.9749 120.802 66.5983 122.647 70.5825C122.647 76.5419 123.743 82.5862 121.409 88.2839C118.521 95.3239 111.428 99.3699 104.206 95.7359C103.601 95.4335 102.834 96.2664 103.437 96.7421C111.487 103.124 123.688 96.7633 124.624 83.4793C129.379 80.1193 147.165 65.6204 126.688 48.292C103.297 28.4968 82.478 49.5069 80.1544 62.2622C77.8767 74.8177 80.0147 84.2432 96.572 86.3759Z" fill="#4B187A"></path><path d="M211.741 85.4083C212.96 83.9141 213.696 82.0849 213.852 80.163C214.008 78.2411 213.577 76.3172 212.615 74.646C210.242 70.4019 206.71 71.4629 204.682 72.5664C203.715 74.1789 203.253 76.0436 203.354 77.921C203.369 78.0369 203.338 78.154 203.267 78.2467C203.195 78.3394 203.09 78.4 202.975 78.4153C202.859 78.4305 202.742 78.3991 202.649 78.328C202.556 78.2569 202.496 78.1518 202.48 78.036C202.219 77.0737 202.161 76.0673 202.312 75.0814C202.462 74.0956 202.817 73.1522 203.354 72.3117C204.091 64.6971 191.882 60.8367 187.253 68.4849C186.239 65.7775 180.517 66.7997 180.517 66.7997C175.58 67.2895 175.824 73.012 176.252 75.8414C177.63 77.2097 178.568 78.9595 178.943 80.8654C178.971 80.9801 178.953 81.1014 178.893 81.2032C178.833 81.305 178.736 81.3793 178.622 81.4103C178.508 81.4412 178.386 81.4263 178.283 81.3688C178.18 81.3112 178.103 81.2156 178.07 81.1023C177.562 79.7742 176.89 78.5147 176.07 77.3534C174.81 77.249 171.148 77.4524 167.988 82.5966C164.078 88.9628 170.068 94.0911 170.068 94.0911C166.678 100.539 174.697 102.049 177.169 102.355C177.383 103.315 177.675 104.256 178.043 105.168C180.535 111.342 184.51 115.883 190.729 113.656C190.658 113.74 190.607 113.838 190.581 113.945C190.204 116.436 190.079 118.958 190.206 121.474C190.255 122.359 191.695 122.691 191.865 121.694C192.258 119.129 192.305 116.522 192.004 113.945C191.994 113.816 191.947 113.693 191.87 113.589C191.793 113.486 191.688 113.406 191.568 113.359C197.226 111.17 199.568 106.705 197.757 106.321C197.605 106.29 197.448 106.304 197.304 106.362C197.16 106.42 197.037 106.52 196.951 106.648C194.965 109.557 191.419 112.709 187.707 112.703C183.758 112.703 181.284 108.93 179.739 105.766C177.429 101.041 177.728 96.5704 178.501 91.9178C179.039 91.2721 179.722 90.763 180.494 90.4323C180.901 90.7218 181.37 90.9124 181.864 90.989C182.357 91.0656 182.862 91.026 183.338 90.8734C183.813 90.7208 184.247 90.4593 184.604 90.1099C184.961 89.7604 185.231 89.3325 185.394 88.8602C187.474 90.3191 190.201 85.3659 190.201 85.3659C190.855 90.3174 197.982 87.7762 197.982 87.7762C200.733 88.3881 199.658 93.771 199.283 95.3519C199.004 95.5792 198.754 95.8406 198.54 96.13C198.114 96.7101 198.951 97.5182 199.536 97.1168C204.031 94.0416 204.054 99.9214 200.733 100.463C200.544 100.515 200.378 100.63 200.262 100.789C200.147 100.947 200.088 101.14 200.095 101.336C200.067 107.052 200.585 112.757 201.642 118.374C201.676 118.509 201.759 118.627 201.874 118.704C201.989 118.782 202.129 118.815 202.267 118.797C202.405 118.779 202.531 118.71 202.622 118.605C202.713 118.5 202.762 118.365 202.76 118.226C202.685 114.258 202.026 110.291 201.948 106.316C204.019 109.907 208.999 109.043 212.537 106.919C216.905 104.298 211.087 97.7233 211.087 97.7233C211.087 97.7233 217.16 99.1115 218.39 93.6348C219.621 88.1582 211.741 85.4083 211.741 85.4083Z" fill="#4B187A"></path><path d="M100.798 217.298C97.5568 214.894 94.9653 211.72 93.258 208.063C93.2166 207.921 93.1205 207.8 92.9907 207.729C92.8609 207.657 92.7079 207.639 92.5651 207.679C92.4223 207.72 92.3012 207.815 92.2283 207.944C92.1554 208.073 92.1365 208.226 92.1758 208.369C92.6464 210.564 93.5784 212.634 94.9098 214.442C96.2411 216.249 97.9416 217.753 99.8983 218.854C100.105 218.973 100.35 219.006 100.58 218.944C100.811 218.883 101.007 218.732 101.126 218.526C101.246 218.32 101.278 218.074 101.217 217.844C101.155 217.614 101.005 217.417 100.798 217.298Z" fill="#4B187A"></path><path d="M98.5119 220.976C94.3333 216.995 92.5826 217.016 90.0361 212.664C89.9554 212.532 89.8297 212.433 89.6819 212.385C89.5341 212.337 89.3741 212.344 89.2311 212.405C89.088 212.465 88.9715 212.575 88.9028 212.714C88.834 212.853 88.8176 213.013 88.8566 213.163C90.0113 217.163 94.1741 220.06 97.3749 222.458C98.2591 223.116 99.1839 221.727 98.5119 220.976Z" fill="#4B187A"></path><path d="M90.8318 221.257C89.4707 219.987 88.3869 218.449 87.6488 216.739C87.591 216.574 87.4725 216.437 87.3174 216.356C87.1623 216.275 86.9821 216.255 86.8134 216.302C86.6448 216.349 86.5002 216.458 86.409 216.608C86.3178 216.757 86.2869 216.936 86.3225 217.107C86.8966 219.291 88.1141 221.251 89.8168 222.734C90.4668 223.601 91.2858 224.328 92.2244 224.87C93.1629 225.411 94.2015 225.758 95.2776 225.887C95.4622 225.854 95.6318 225.764 95.7617 225.629C95.8917 225.494 95.9753 225.321 96.0005 225.135C96.0257 224.949 95.9911 224.76 95.9019 224.595C95.8126 224.43 95.6732 224.298 95.5039 224.218C93.7184 223.648 92.1095 222.629 90.8318 221.257Z" fill="#4B187A"></path><path d="M105.177 252.788C111.343 250.123 118.579 249.604 125.168 249.355C130.245 248.941 135.353 249.535 140.2 251.102C140.192 251.275 140.239 251.447 140.334 251.591C140.429 251.736 140.568 251.847 140.73 251.908C140.892 251.969 141.07 251.977 141.237 251.931C141.404 251.885 141.552 251.788 141.66 251.652C143.509 252.458 145.247 253.497 146.831 254.745C146.922 254.827 147.028 254.889 147.144 254.928C147.259 254.967 147.382 254.981 147.503 254.97C147.625 254.959 147.743 254.923 147.85 254.864C147.957 254.805 148.05 254.725 148.125 254.629C148.199 254.532 148.253 254.421 148.282 254.302C148.312 254.184 148.316 254.061 148.296 253.941C148.275 253.82 148.23 253.706 148.163 253.604C148.096 253.502 148.009 253.415 147.906 253.348C146.013 251.924 143.92 250.787 141.694 249.974C140.818 245.592 139.385 241.341 137.43 237.323C137.132 236.704 136.069 237.146 136.313 237.786C137.719 241.53 138.866 245.366 139.745 249.267C135.184 248.095 130.467 247.641 125.766 247.921C120.222 248.01 114.705 248.722 109.32 250.043C109.357 249.798 109.307 249.548 109.181 249.336C107.476 245.97 106.194 242.406 105.363 238.725C105.314 238.59 105.22 238.476 105.097 238.402C104.974 238.329 104.829 238.3 104.687 238.321C104.545 238.342 104.415 238.411 104.318 238.518C104.222 238.624 104.165 238.761 104.158 238.904C104.559 242.805 105.555 246.622 107.112 250.222C107.439 251.106 108.068 250.176 104.577 251.813C103.981 252.177 104.544 253.062 105.177 252.788Z" fill="#4B187A"></path><path d="M91.8274 299.811C91.7248 299.128 90.685 299.33 90.6656 299.959C90.4445 307.386 91.2262 314.925 91.6099 322.352C91.9777 329.489 91.8981 336.759 92.5701 343.871C92.029 343.871 91.4773 343.917 90.945 343.923C89.8869 343.932 88.8315 344.032 87.7902 344.22C87.6327 344.266 87.4944 344.362 87.396 344.494C87.2977 344.625 87.2445 344.785 87.2445 344.949C87.2445 345.114 87.2977 345.273 87.396 345.405C87.4944 345.536 87.6327 345.632 87.7902 345.679C89.8004 346.035 91.8511 346.103 93.8805 345.88C94.0203 345.889 94.1605 345.871 94.2931 345.825C94.4257 345.78 94.5479 345.709 94.6528 345.616C94.7577 345.523 94.8432 345.41 94.9043 345.284C94.9653 345.158 95.0008 345.021 95.0087 344.881C95.2156 341.47 93.7302 326.55 93.3995 321.33C92.9486 314.209 92.8955 306.893 91.8274 299.811Z" fill="#4B187A"></path><path d="M150.025 309.595C150.025 309.317 149.914 309.05 149.718 308.854C149.521 308.657 149.254 308.546 148.976 308.546C148.698 308.546 148.431 308.657 148.235 308.854C148.038 309.05 147.927 309.317 147.927 309.595C147.894 338.619 146.866 340.719 147.901 346.867L145.568 347.129C144.675 347.127 143.798 347.363 143.026 347.811C142.651 348.091 142.495 348.795 143.026 349.049C144.583 349.773 146.875 349.134 148.53 348.98C148.711 348.966 148.884 348.907 149.037 348.81C149.189 348.712 149.315 348.579 149.404 348.422C149.518 348.377 149.62 348.306 149.701 348.213C149.782 348.121 149.839 348.01 149.867 347.891C151.178 342.11 150.285 335.617 150.221 329.702C150.136 322.946 150.05 316.288 150.025 309.595Z" fill="#4B187A"></path><path d="M130.261 309.36C129.421 315.092 129.309 320.907 129.929 326.667C129.222 326.667 128.461 326.746 127.807 326.773C126.749 326.728 125.692 326.876 124.687 327.21C123.98 327.507 124.311 328.467 124.88 328.678C125.986 328.946 127.131 329.014 128.261 328.877C129.331 328.995 130.414 328.874 131.432 328.524C131.522 328.481 131.603 328.42 131.669 328.345C131.735 328.27 131.785 328.182 131.816 328.087C131.924 328.018 132.016 327.927 132.087 327.82C132.158 327.713 132.206 327.593 132.228 327.466C132.998 321.451 132.921 315.357 132 309.363C131.978 309.148 131.878 308.948 131.718 308.802C131.557 308.657 131.349 308.576 131.132 308.576C130.916 308.575 130.707 308.655 130.546 308.8C130.385 308.945 130.284 309.144 130.261 309.36Z" fill="#4B187A"></path><path d="M187.523 304.118C188.827 301.034 190.321 297.948 188.947 294.62C186.27 288.135 175.833 285.578 169.884 283.479C160.558 280.125 150.973 277.541 141.225 275.755C140.518 275.629 140.212 276.698 140.928 276.839C148.503 278.344 155.976 280.323 163.304 282.763C170.531 285.152 183.723 287.9 187.016 295.423C189.202 300.412 184.397 307.48 182.241 312.249C176.366 325.834 169.338 338.891 161.236 351.277C160.114 351.314 159.016 351.614 158.03 352.151C158.407 333.926 159.682 316.33 169.493 300.709L169.847 300.629C169.954 300.605 170.054 300.555 170.137 300.482C170.221 300.41 170.285 300.318 170.323 300.215C170.362 300.112 170.375 300.001 170.36 299.891C170.346 299.782 170.304 299.678 170.239 299.589C170.729 298.855 171.201 298.123 171.725 297.396C172.078 296.9 171.274 296.281 170.851 296.742C170.068 297.597 169.333 298.495 168.649 299.432C154.741 302.631 139.39 307.094 125.349 302.551C110.952 297.886 107.824 283.202 105.573 269.85C111.248 269.655 116.853 268.543 122.173 266.558C132.592 263.077 146.916 258.214 157.252 264.059C157.406 264.128 157.579 264.138 157.74 264.086C157.9 264.035 158.035 263.926 158.12 263.78C158.204 263.635 158.232 263.463 158.198 263.298C158.163 263.134 158.069 262.988 157.933 262.888C152.43 258.867 145.012 259.769 138.633 260.695C123.13 262.954 111.174 272.443 95.1396 266.49C88.5188 264.032 86.1863 259.054 84.3843 252.651C81.5734 243.273 81.9421 233.228 85.433 224.081C86.6121 225.878 88.2643 227.314 90.2076 228.232C91.0105 228.61 91.7196 227.438 90.915 227.025C85.0351 224.019 83.8114 216.498 79.7848 211.605C82.697 210.491 85.4 208.893 87.7796 206.878C90.1563 205.121 91.7019 202.781 94.0874 201.304C94.7791 202.42 95.409 203.572 95.9743 204.756C96.1063 204.979 96.3204 205.14 96.5704 205.206C96.8205 205.273 97.0865 205.238 97.3112 205.11C98.7259 204.293 102.157 204.707 102.684 206.578C102.755 206.836 102.927 207.055 103.16 207.186C103.393 207.318 103.669 207.352 103.927 207.28C104.185 207.208 104.404 207.037 104.535 206.804C104.667 206.57 104.701 206.295 104.629 206.037C104.366 205.194 103.827 204.464 103.099 203.966C103.332 203.876 103.555 203.761 103.764 203.624C105.345 206.735 108.132 211.262 112.056 210.999C116.189 210.721 117.603 206.684 117.856 203.136C126.698 204.105 135.469 205.679 141.123 213.227C147.125 221.239 147.47 230.697 149.475 240.136C149.661 241.01 151.171 240.828 151.058 239.919C149.671 228.935 148.433 218.953 141.027 210.3C135.966 204.387 125.572 200.995 117.787 201.678C117.621 200.638 117.402 199.607 117.315 198.558C117.228 197.509 117.244 196.348 117.138 195.246C117.068 194.496 115.828 194.171 115.697 195.055C115.349 197.487 115.402 199.961 115.854 202.376C115.549 205.136 114.77 210.242 110.611 208.859C107.99 207.987 106.243 204.792 104.837 202.551C107.982 198.252 106.288 186.473 105.004 180.202C104.794 179.232 104.93 178.219 105.39 177.34C105.849 176.46 106.602 175.769 107.518 175.387C113.747 172.871 119.69 165.279 119.69 165.279C120.231 169.115 123.934 170.52 125.614 170.938C125.892 174.646 125.892 178.37 125.614 182.079C125.283 186.042 124.176 190.185 119.83 191.532C118.309 192.002 116.701 192.123 115.127 191.887C113.553 191.651 112.052 191.064 110.735 190.169C110.589 190.023 110.391 189.941 110.185 189.94C109.978 189.94 109.78 190.022 109.634 190.168C109.488 190.314 109.406 190.512 109.406 190.718C109.406 190.925 109.487 191.123 109.633 191.269C113.225 195.05 121.557 194.36 124.792 190.544C129.23 185.309 127.975 175.185 126.898 168.902C127.101 167.59 127.02 166.25 126.661 164.971C125.81 161.977 123.761 151.452 107.188 151.355C92.8407 151.263 84.2694 165.576 82.2305 169.421C81.1828 167.588 80.1921 165.723 79.2596 163.829C78.943 163.175 78.0217 163.748 78.2993 164.397C80.7273 170.349 83.6896 176.069 87.1501 181.486C90.8101 186.768 93.6554 192.57 95.5906 198.698C93.2907 199.39 91.2824 200.819 89.8752 202.765C86.8704 206.16 83.1376 208.834 78.9554 210.585C70.3084 203.838 64.1574 194.4 61.475 183.766C53.7825 153.42 59.6288 138.106 72.2303 124.993C87.4949 109.119 95.2811 114.737 96.8337 114.411C97.9956 117.575 101.725 118.794 104.871 119.078C109.937 119.534 113.2 116.956 116.553 113.407C116.65 113.305 116.724 113.185 116.772 113.053C131.503 116.007 143.054 124.41 151.807 136.424C152.393 137.227 153.74 136.424 153.151 135.637C144.318 123.745 131.782 113.662 116.615 111.826C116.526 111.823 116.44 111.851 116.369 111.904C116.192 111.759 115.966 111.688 115.738 111.706C115.511 111.725 115.299 111.83 115.147 112.001C112.742 114.67 110.39 117.156 106.505 117.374C104.824 117.49 103.141 117.177 101.613 116.466C100.085 115.755 98.7626 114.668 97.7692 113.306L97.6985 113.253C97.6876 113.056 97.6165 112.866 97.4949 112.71C97.3732 112.554 97.2067 112.438 97.0177 112.38C79.6645 106.885 61.9029 130.028 57.963 144.401C54.5217 156.957 56.2972 170.963 59.413 183.412C61.7783 193.483 67.3566 202.512 75.3055 209.133C75.1286 211.938 73.9138 222.129 64.8826 226.781C54.3961 232.184 60.849 245.608 66.0887 248.458C69.1164 250.118 72.5844 250.798 76.0146 250.403C76.0146 250.403 76.4514 224.193 81.5443 217.124L81.4577 216.914C82.6399 218.805 83.7242 220.756 84.7062 222.758C79.9316 229.832 80.4285 240.511 81.997 248.515C83.6186 256.789 86.3685 264.687 94.7294 267.815C97.808 268.968 101.055 269.608 104.341 269.711C105.11 282.756 108.602 298.426 121.632 303.881C136.486 310.099 152.543 304.624 167.447 301.191C157.217 316.122 156.964 336.138 156.867 353.611C156.875 353.725 156.921 353.833 156.998 353.917V354.039C156.998 354.55 158.571 355.268 159.427 355.682C163.126 357.496 167.272 358.198 171.362 357.702C173.248 357.586 175.081 357.032 176.717 356.085C178.176 355.046 177.088 353.59 176.123 352.589C175.484 351.922 174.669 351.45 173.772 351.228C171.631 350.865 169.45 350.795 167.29 351.019C166.229 351.12 164.897 351.081 163.56 351.097C172.751 336.081 180.763 320.374 187.523 304.118Z" fill="#4B187A"></path><path d="M191.481 339.327C192.45 331.464 193.304 323.54 193.918 315.607C194.546 307.508 196.349 297.899 194.172 289.902C192.418 283.465 187.585 280.353 181.739 277.837C173.467 274.268 165.143 270.63 156.787 267.352C156.184 267.117 155.747 268.13 156.342 268.413C168.623 274.195 183.118 279.73 187.087 282.585C191.566 285.815 192.821 290.701 192.949 295.961C193.294 310.263 191.157 325.098 189.332 339.419C188.389 339.468 187.449 339.576 186.519 339.742C185.545 334.319 184.163 328.977 182.386 323.761C182.284 323.604 182.134 323.483 181.959 323.416C181.784 323.35 181.592 323.34 181.411 323.39C181.23 323.44 181.069 323.546 180.952 323.692C180.836 323.839 180.769 324.02 180.761 324.207C182.203 329.528 183.369 334.92 184.255 340.361V340.414C184.255 340.86 184.404 343.909 185.242 344.582C186.2 345.253 187.318 345.657 188.484 345.753C192.805 346.491 197.238 346.258 201.458 345.07C202.24 344.565 202.088 343.323 201.607 342.547C199.801 339.235 195.005 339.327 191.481 339.327Z" fill="#4B187A"></path><path d="M114.473 176.917L114.307 177.03C114.132 177.133 113.989 177.283 113.895 177.463C113.8 177.643 113.758 177.846 113.773 178.049C113.787 178.252 113.859 178.447 113.978 178.611C114.097 178.776 114.26 178.903 114.449 178.98C114.637 179.057 114.843 179.08 115.043 179.046C115.244 179.012 115.431 178.923 115.583 178.788C115.736 178.653 115.847 178.479 115.906 178.284C115.964 178.09 115.967 177.882 115.914 177.686L115.846 177.476C115.804 177.34 115.733 177.215 115.638 177.11C115.542 177.005 115.424 176.923 115.293 176.869C115.161 176.815 115.019 176.792 114.878 176.8C114.736 176.808 114.598 176.848 114.473 176.917Z" fill="#4B187A"></path><path d="M122.267 178.105C122.55 178.078 122.813 177.946 123.005 177.735C123.196 177.524 123.302 177.25 123.302 176.965C123.302 176.68 123.196 176.405 123.005 176.194C122.813 175.984 122.55 175.852 122.267 175.824C121.983 175.852 121.72 175.984 121.528 176.194C121.337 176.405 121.231 176.68 121.231 176.965C121.231 177.25 121.337 177.524 121.528 177.735C121.72 177.946 121.983 178.078 122.267 178.105Z" fill="#4B187A"></path><path d="M125.002 173.474C122.569 172.126 119.662 172.858 119.996 174.593C120.034 174.724 120.122 174.836 120.241 174.904C120.359 174.972 120.5 174.992 120.633 174.959C121.28 174.697 121.603 174.225 122.38 174.278C123.156 174.331 123.874 174.697 124.652 174.775C124.802 174.768 124.946 174.714 125.063 174.62C125.18 174.526 125.264 174.397 125.303 174.252C125.342 174.107 125.334 173.954 125.28 173.814C125.226 173.674 125.128 173.555 125.002 173.474Z" fill="#4B187A"></path><path d="M110.795 176.349C110.762 176.493 110.776 176.644 110.835 176.78C110.894 176.915 110.995 177.028 111.123 177.102C111.251 177.176 111.399 177.207 111.546 177.191C111.693 177.174 111.831 177.111 111.939 177.011C112.396 176.56 112.857 176.112 113.354 175.709C113.96 175.405 114.634 175.258 115.312 175.281C115.446 175.276 115.575 175.229 115.681 175.145C115.786 175.061 115.862 174.946 115.897 174.816C115.932 174.686 115.924 174.548 115.875 174.423C115.826 174.297 115.738 174.191 115.625 174.119C113.915 172.906 111.253 174.51 110.795 176.349Z" fill="#4B187A"></path><path d="M118.763 181.87C118.638 181.966 118.546 182.1 118.5 182.251C118.454 182.402 118.457 182.564 118.508 182.714C118.559 182.864 118.656 182.994 118.785 183.085C118.914 183.177 119.068 183.226 119.227 183.225C121.736 183.301 120.1 180.105 119.847 178.981C119.807 178.861 119.73 178.757 119.627 178.683C119.524 178.609 119.401 178.57 119.274 178.57C119.148 178.57 119.025 178.609 118.922 178.683C118.819 178.757 118.742 178.861 118.701 178.981C118.129 180.777 119.679 181.432 118.763 181.87Z" fill="#4B187A"></path><path d="M114.203 184.719C114.104 184.623 113.977 184.561 113.84 184.544C113.703 184.527 113.564 184.556 113.445 184.625C113.326 184.695 113.233 184.802 113.18 184.929C113.128 185.056 113.119 185.198 113.154 185.331C113.55 186.857 116.291 188.956 117.828 187.807C117.975 187.719 118.08 187.576 118.122 187.411C118.164 187.245 118.138 187.069 118.051 186.923C117.708 186.35 116.54 186.482 115.846 186.167C115.209 185.796 114.651 185.304 114.203 184.719Z" fill="#4B187A"></path><path d="M76.6866 348.991C73.5318 349.139 70.3522 349.182 67.1727 349.168C82.9519 344.503 79.5283 324.173 74.6105 308.465C75.0968 307.441 73.7599 306.178 72.9199 307.186C65.6589 315.621 46.1555 316.659 37.3136 309.351C37.2738 309.22 37.1926 309.106 37.0824 309.026C36.9721 308.945 36.8386 308.903 36.7021 308.905C36.5656 308.907 36.4335 308.953 36.3256 309.037C36.2177 309.12 36.1399 309.237 36.104 309.368C33.8139 319.705 30.2153 335.648 37.9997 344.596C44.0281 351.219 51.5879 348.278 37.5717 349.627C36.8202 349.698 36.5107 350.895 37.3701 351.053C50.0035 353.367 63.9312 352.188 76.6866 351.612C78.3807 351.534 78.4337 348.886 76.6866 348.991ZM53.1671 349.026C47.9238 348.72 42.9529 347.339 40.0616 344.656C31.9607 337.185 35.3772 320.806 37.1279 310.944C45.9945 318.548 65.0559 317.791 73.3532 309.883C75.668 320.207 81.0845 339.121 70.308 345.723C66.3108 347.824 61.8753 348.956 57.3599 349.026H53.1671Z" fill="#4B187A"></path><path d="M120.475 357.474C119.559 340.589 119.349 323.653 118.222 306.799C118.222 306.567 118.13 306.345 117.966 306.181C117.803 306.017 117.58 305.925 117.349 305.925C117.117 305.925 116.895 306.017 116.731 306.181C116.567 306.345 116.475 306.567 116.475 306.799C116.541 323.618 117.349 340.437 117.985 357.238C115.349 357.074 112.705 357.427 110.204 358.278C109.393 358.552 109.479 359.87 110.415 359.833C112.109 359.771 113.796 359.589 115.499 359.58C117.041 359.711 118.592 359.693 120.13 359.527C121.004 359.35 120.9 358.427 120.392 357.955C120.456 357.803 120.484 357.638 120.475 357.474Z" fill="#4B187A"></path><path d="M112.622 85.1167C112.511 85.1199 112.402 85.1516 112.307 85.2087C112.211 85.2659 112.132 85.3467 112.077 85.4433C112.022 85.5399 111.992 85.6491 111.991 85.7604C111.99 85.8716 112.018 85.9812 112.072 86.0787C112.38 86.4862 112.825 86.7681 113.325 86.8722C113.825 86.9763 114.346 86.8954 114.791 86.6447C115.236 86.3939 115.575 85.9902 115.745 85.5086C115.914 85.027 115.904 84.5 115.715 84.0256C115.356 83.1257 114.886 82.2743 114.316 81.4915C113.907 80.9415 112.866 81.2209 113.11 81.999C113.402 82.7096 113.732 83.4038 114.098 84.0787C114.698 85.4668 113.488 85.0778 112.622 85.1167Z" fill="#4B187A"></path><path d="M109.476 77.638C109.258 77.6377 109.045 77.702 108.863 77.8229C108.682 77.9439 108.54 78.1159 108.457 78.3173C108.373 78.5187 108.351 78.7403 108.393 78.9542C108.436 79.1681 108.541 79.3646 108.695 79.5187C108.849 79.6729 109.046 79.7779 109.26 79.8203C109.473 79.8628 109.695 79.8408 109.896 79.7572C110.098 79.6736 110.27 79.5321 110.391 79.3507C110.512 79.1692 110.576 78.956 110.576 78.7379C110.576 78.4462 110.46 78.1665 110.254 77.9602C110.047 77.7539 109.768 77.638 109.476 77.638Z" fill="#4B187A"></path><path d="M118.143 79.6313C118.417 79.6044 118.672 79.4763 118.857 79.272C119.042 79.0678 119.145 78.8018 119.145 78.5261C119.145 78.2503 119.042 77.9844 118.857 77.7801C118.672 77.5758 118.417 77.4478 118.143 77.4208C117.868 77.4478 117.614 77.5758 117.428 77.7801C117.243 77.9844 117.141 78.2503 117.141 78.5261C117.141 78.8018 117.243 79.0678 117.428 79.272C117.614 79.4763 117.868 79.6044 118.143 79.6313Z" fill="#4B187A"></path><path d="M270.961 74.2569C271.066 74.3828 271.201 74.4809 271.354 74.5426C271.506 74.6042 271.671 74.6276 271.834 74.6106C270.597 80.8919 269.744 89.465 273.582 94.9841C274.751 96.3537 276.183 97.4757 277.793 98.2844C279.402 99.0931 281.157 99.5721 282.954 99.6933C282.798 101.437 282.777 103.19 282.892 104.937C282.823 106.849 282.975 108.764 283.347 110.641C283.398 110.807 283.501 110.953 283.641 111.056C283.781 111.159 283.95 111.215 284.124 111.215C284.298 111.215 284.467 111.159 284.607 111.056C284.747 110.953 284.85 110.807 284.901 110.641C285.12 108.746 285.12 106.832 284.901 104.937C284.893 103.181 284.756 101.429 284.491 99.6933C285.986 99.7016 287.456 99.3063 288.745 98.5491C288.924 98.44 289.057 98.2705 289.121 98.0714C289.185 97.8723 289.175 97.6569 289.094 97.4643C289.013 97.2717 288.865 97.1146 288.678 97.0216C288.491 96.9287 288.276 96.9059 288.073 96.9576C281.884 98.6217 275.164 95.9991 273.509 89.488C272.218 84.4039 272.979 79.3269 273.115 74.1809C276.075 72.9092 278.846 71.236 281.35 69.2082C282.524 73.8736 285.223 78.0127 289.02 80.9679C290.701 82.2747 293.72 84.7947 296.36 85.2828C295.867 86.074 295.324 86.833 294.735 87.5551C294.574 87.5827 294.425 87.6585 294.308 87.7725C294.191 87.8864 294.111 88.0332 294.079 88.1935C292.544 95.5747 294.746 103.326 293.773 110.839C293.66 111.713 295.05 111.853 295.258 111.039C296.894 104.698 295.897 97.6897 295.879 91.0671C308.627 88.9185 314.383 73.2737 306.748 63.2664C306.875 63.3007 307.01 63.2995 307.138 63.2627C307.265 63.226 307.38 63.1552 307.469 63.058C307.559 62.9608 307.621 62.8409 307.648 62.7112C307.675 62.5815 307.665 62.4469 307.621 62.3221C304.484 51.7507 286.531 46.3802 278.213 53.657C278.134 53.7251 278.073 53.811 278.034 53.9075C277.995 54.004 277.979 54.1084 277.989 54.212C277.998 54.3157 278.032 54.4156 278.088 54.5036C278.143 54.5916 278.219 54.6651 278.308 54.7181C270.528 56.8401 264.715 65.369 270.149 73.8166C270.229 73.9589 270.348 74.0757 270.492 74.1536C270.635 74.2315 270.798 74.2673 270.961 74.2569ZM282.572 68.0676V67.9986C282.572 67.9279 282.749 67.8218 282.825 67.7015C282.894 67.6241 282.934 67.5256 282.94 67.4221C287.849 63.7616 295.741 69.7458 297.644 74.2445C298.279 75.7568 298.572 77.3907 298.503 79.0295C298.434 80.6683 298.003 82.2716 297.243 83.7248C293.679 82.5559 290.467 80.5083 287.903 77.771C285.339 75.0337 283.506 71.6948 282.572 68.0623V68.0676ZM295.906 88.984V88.7488C300.954 84.9751 301.511 76.5134 298.176 71.4752C295.281 67.1038 287.858 62.5732 282.834 65.5954C283.073 65.1526 283.366 64.7415 283.707 64.3717C284.768 63.3944 285.942 62.5472 287.203 61.8482C288.689 61.0097 289.838 59.6815 290.454 58.0904C297.81 58.0904 305.05 61.2505 307.395 68.9323C310.031 77.5744 304.817 87.2934 295.906 88.9787V88.984ZM304.196 60.5979C302.223 58.786 299.845 57.4733 297.26 56.7696C294.676 56.066 291.96 55.9919 289.341 56.5536C286.57 54.6663 283.183 53.9073 279.872 54.4316C288.47 50.2352 298.74 53.7543 304.196 60.5926V60.5979ZM273.852 59.0948C275.872 57.349 278.428 56.344 281.096 56.2456C283.764 56.1472 286.386 56.9614 288.53 58.5537C287.368 60.5979 284.852 61.3831 283.129 62.9216C281.75 64.1453 280.888 65.8479 280.719 67.6838C279.485 68.4981 278.201 69.2334 276.874 69.8855C275.176 70.9287 273.368 71.7815 271.483 72.4284C269.746 67.6874 269.804 62.773 273.852 59.0895V59.0948Z" fill="#4B187A"></path><path d="M282.234 93.7409C283.267 94.0104 284.362 93.8925 285.313 93.4097C286.264 92.9269 287.006 92.1124 287.398 91.1201C287.684 90.3562 286.537 89.9566 286.132 90.5896C285.776 91.1375 285.258 91.5608 284.651 91.8004C284.043 92.04 283.376 92.0841 282.742 91.9265C282.508 91.8784 282.264 91.9208 282.06 92.0453C281.856 92.1697 281.707 92.3669 281.642 92.5971C281.578 92.8273 281.603 93.0733 281.713 93.2856C281.823 93.4979 282.009 93.6606 282.234 93.7409Z" fill="#4B187A"></path><path d="M253.208 167.157C253.802 147.475 254.955 119.812 278.319 114.263C279.955 142.204 278.563 161.781 278.468 169.875C278.453 171.113 277.882 173.658 279.341 174.243C279.591 174.311 279.857 174.295 280.097 174.198C280.337 174.1 280.538 173.926 280.669 173.702C281.035 172.901 280.947 174.409 281.159 150.724C281.269 138.492 281.43 126.034 279.769 113.915C279.612 113.232 279.909 112.726 278.354 112.919C254.336 117.287 250.807 147.141 251.199 167.088C251.196 167.349 251.296 167.6 251.475 167.788C251.655 167.976 251.902 168.087 252.162 168.096C252.422 168.105 252.676 168.011 252.868 167.836C253.061 167.661 253.177 167.417 253.192 167.157H253.208Z" fill="#4B187A"></path><path d="M301.881 113.225C301.87 113.079 301.809 112.941 301.709 112.835C301.608 112.729 301.474 112.66 301.329 112.64C301.184 112.621 301.037 112.652 300.912 112.728C300.787 112.804 300.692 112.921 300.643 113.059C297.197 130.884 295.676 160.059 295.515 174.994C295.456 180.577 295.322 186.346 298.008 191.386C298.562 192.424 300.376 191.707 299.953 190.563C297.67 184.448 297.778 178.331 297.831 171.893C298.051 144.409 300.077 134.081 301.881 113.225Z" fill="#4B187A"></path><path d="M295.517 174.995C295.693 158.939 297.269 130.852 300.606 113.496C300.378 113.178 300.077 112.919 299.729 112.739C299.381 112.56 298.996 112.466 298.604 112.465H296.659C295.324 114.456 294.233 117.123 291.628 117.549C290.109 117.832 288.54 117.66 287.118 117.055C285.696 116.451 284.483 115.44 283.633 114.15C282.238 111.533 280.609 112.718 279.743 113.722V113.95C281.403 126.067 281.189 138.561 281.133 150.759C281.133 150.936 280.903 172.834 280.871 173.01C280.863 173.26 280.788 173.503 280.655 173.713C280.521 173.924 280.333 174.095 280.11 174.208C283.845 179.336 287.007 181.157 296.71 188.318C295.626 183.965 295.224 179.471 295.517 174.995Z" fill="#F56B0C"></path><path d="M318.734 271.485C315.664 242.483 313.895 213.305 310.61 184.334C310.502 183.391 309.053 183.338 309.098 184.334C310.399 213.404 313.941 242.536 316.829 271.485C316.949 272.691 318.863 272.699 318.734 271.485Z" fill="#4B187A"></path><path d="M264.26 155.136C264.248 154.515 263.231 154.315 263.123 154.987C262.014 161.555 261.823 168.244 262.556 174.864C262.667 175.791 264.107 175.851 264.05 174.864C263.666 168.303 264.374 161.718 264.26 155.136Z" fill="#4B187A"></path><path d="M304.816 113.119C320.201 115.772 334.87 127.275 340.044 142.223C346.471 160.791 334.331 176.655 316.804 182.116C316.635 182.212 316.503 182.362 316.429 182.542C316.355 182.722 316.343 182.922 316.395 183.109C316.448 183.297 316.561 183.461 316.717 183.577C316.874 183.693 317.064 183.753 317.259 183.748C335.431 180.194 347.841 161.723 342.288 143.765C337.272 127.515 321.927 113.98 305 111.787C304.249 111.685 304.065 112.995 304.816 113.119Z" fill="#4B187A"></path><path d="M313.92 160.741C316.891 159.33 319.447 157.175 321.341 154.486C323.234 151.796 324.401 148.663 324.728 145.39C324.799 144.614 323.62 144.506 323.418 145.213C321.854 151.041 318.18 156.08 313.108 159.35C313.017 159.403 312.937 159.474 312.873 159.558C312.809 159.642 312.762 159.738 312.735 159.84C312.708 159.943 312.702 160.049 312.716 160.154C312.73 160.259 312.765 160.36 312.818 160.451C312.872 160.543 312.943 160.623 313.027 160.687C313.111 160.751 313.207 160.798 313.309 160.825C313.411 160.852 313.518 160.858 313.623 160.844C313.728 160.829 313.829 160.795 313.92 160.741Z" fill="#4B187A"></path><path d="M310.898 157.625C305.524 167.367 309.973 178.825 314.392 188.011C315.015 189.304 317.018 188.158 316.337 186.876C311.349 177.44 309.347 168.529 312.125 158.131C312.18 157.971 312.172 157.796 312.102 157.641C312.032 157.487 311.906 157.365 311.75 157.301C311.593 157.236 311.418 157.234 311.259 157.294C311.101 157.354 310.972 157.473 310.898 157.625Z" fill="#4B187A"></path><path d="M367.801 228.317C366.811 223.896 361.244 223.758 358.793 227.111C358.34 227.731 359.343 228.49 359.854 227.931C360.445 227.301 361.196 226.843 362.026 226.605C362.857 226.366 363.736 226.356 364.572 226.577C368.395 228.395 364.733 235.587 363.776 238.057C360.694 246.031 355.769 252.558 350.934 259.481C350.32 260.365 351.677 261.385 352.42 260.625C357.169 255.407 361.024 249.441 363.829 242.968C365.679 238.975 368.821 232.86 367.801 228.317Z" fill="#4B187A"></path><path d="M324.108 230.518C324.638 230.743 325.05 229.933 324.658 229.574C321.404 226.599 317.655 230.29 317.761 233.942C317.846 236.771 319.706 239.247 321.255 241.482C323.504 244.696 326.05 247.691 328.859 250.428C329.744 251.295 331.185 249.898 330.248 249.031C327.282 246.299 321.936 240.488 320.193 236.853C318.84 234.027 319.257 228.47 324.108 230.518Z" fill="#4B187A"></path><path d="M355.709 259.24C354.966 259.345 355.15 260.552 355.886 260.533C357.231 260.494 360.756 261.797 358.027 263.101C356.934 263.339 355.812 263.413 354.697 263.32C351.76 263.412 348.823 263.548 345.908 263.923C350.027 251.168 353.422 238.19 356.078 225.052C356.848 220.964 359.311 205.481 352.269 204.893C346.057 204.362 343.351 217.736 342.771 221.869C341.259 235.003 341.177 248.262 342.527 261.414C342.587 262.156 343.733 262.183 343.716 261.414C343.486 251.55 343.325 241.705 343.392 231.839C343.349 227.51 343.691 223.185 344.414 218.916C344.945 216.086 346.984 207.909 350.25 207.016C360.282 204.277 352.653 232.223 351.675 236.12C346.069 258.439 343.654 263.23 343.894 264.201C342.251 264.269 340.617 264.34 338.975 264.436C339.381 263.635 339.402 245.422 339.473 240.768C339.574 234.101 340.25 226.974 338.345 220.481C337.367 217.144 331.887 205.915 327.521 212.154C324.435 216.574 326.545 225.024 327.344 229.864C329.158 240.819 332.865 251.095 333.459 262.314C333.539 263.79 335.862 263.799 335.776 262.314C334.946 248.082 328.716 234.966 328.087 220.796C328.002 218.882 327.489 214.544 329.1 213.08C332.605 209.897 336.106 219.699 336.456 221.004C338.835 229.86 336.654 245.526 337.487 264.078C337.495 264.23 337.547 264.375 337.636 264.498C330.108 264.957 329.645 265.194 327.501 265.028C325.952 264.904 323.162 264.784 326.384 262.137C327.738 261.452 329.234 261.093 330.752 261.088C331.441 260.986 331.257 259.9 330.594 259.9C328.375 259.9 324.239 260.356 323.395 262.984C323.2 263.606 323.251 264.28 323.539 264.866C323.826 265.452 324.328 265.904 324.941 266.13C327.077 267.251 330.131 266.754 332.403 266.558C336.278 266.224 328.513 266.979 356.089 264.871C357.591 264.988 359.092 264.62 360.37 263.822C363.306 261.056 357.884 258.929 355.709 259.24Z" fill="#4B187A"></path><path d="M355.334 304.449C352.101 304.362 348.842 304.939 345.592 304.956C342.342 304.974 339.1 304.633 335.85 304.52C335.667 304.532 335.493 304.607 335.359 304.732C335.225 304.857 335.139 305.025 335.114 305.207C335.09 305.389 335.129 305.574 335.225 305.73C335.321 305.886 335.468 306.005 335.641 306.065C341.625 307.612 349.62 308.093 355.569 306.196C355.691 306.189 355.81 306.157 355.919 306.102C356.028 306.047 356.124 305.971 356.202 305.877C356.279 305.783 356.337 305.673 356.37 305.556C356.404 305.439 356.413 305.316 356.397 305.195C356.38 305.074 356.339 304.958 356.276 304.854C356.212 304.75 356.128 304.66 356.028 304.59C355.929 304.519 355.815 304.471 355.696 304.447C355.576 304.422 355.453 304.423 355.334 304.449Z" fill="#4B187A"></path><path d="M279.069 88.9787C279.154 88.9508 279.233 88.9048 279.299 88.8439C279.365 88.783 279.417 88.7085 279.452 88.6257C279.486 88.5428 279.503 88.4534 279.5 88.3636C279.497 88.2738 279.475 88.1856 279.435 88.1052C279.244 87.7815 279.081 87.7391 278.789 87.5198C278.537 87.3006 278.353 87.0136 278.259 86.693C278.165 86.3723 278.165 86.0315 278.259 85.7108C278.501 84.6579 278.829 83.6264 279.239 82.6267C279.275 82.4739 279.257 82.3131 279.186 82.1727C279.116 82.0323 278.998 81.9214 278.853 81.8597C278.709 81.7981 278.547 81.7896 278.397 81.8358C278.246 81.882 278.117 81.9799 278.033 82.1121C277.177 83.4863 276.777 85.0951 276.888 86.7099C277.033 87.7214 277.783 89.3784 279.069 88.9787Z" fill="#4B187A"></path><path d="M282.922 82.4869C283.181 82.4869 283.435 82.4101 283.65 82.2661C283.866 82.1221 284.034 81.9174 284.133 81.678C284.232 81.4386 284.258 81.1751 284.207 80.9209C284.157 80.6667 284.032 80.4332 283.849 80.25C283.665 80.0667 283.432 79.9419 283.178 79.8914C282.924 79.8408 282.66 79.8668 282.421 79.9659C282.181 80.0651 281.977 80.2331 281.833 80.4486C281.689 80.664 281.612 80.9174 281.612 81.1766C281.612 81.5241 281.75 81.8574 281.996 82.1031C282.241 82.3489 282.575 82.4869 282.922 82.4869Z" fill="#4B187A"></path><path d="M275.477 81.0813C275.715 81.0526 275.934 80.9378 276.093 80.7586C276.252 80.5794 276.339 80.3482 276.339 80.1087C276.339 79.8693 276.252 79.6381 276.093 79.4589C275.934 79.2797 275.715 79.1648 275.477 79.1361C275.24 79.1648 275.021 79.2797 274.862 79.4589C274.703 79.6381 274.615 79.8693 274.615 80.1087C274.615 80.3482 274.703 80.5794 274.862 80.7586C275.021 80.9378 275.24 81.0526 275.477 81.0813Z" fill="#4B187A"></path><path d="M278.1 76.616C276.979 74.5665 272.618 75.5444 273.502 76.9502C273.971 77.6894 274.544 76.9096 275.907 77.1677C276.408 77.2615 276.791 77.5851 277.279 77.6983C277.419 77.7305 277.565 77.7216 277.7 77.6727C277.835 77.6237 277.953 77.5369 278.04 77.4226C278.126 77.3082 278.178 77.1713 278.189 77.0282C278.2 76.8851 278.169 76.7419 278.1 76.616Z" fill="#4B187A"></path><path d="M285.614 78.0326C284.818 76.4411 282.319 76.3615 280.816 76.678C279.995 76.8549 280.213 78.0821 281.009 78.1104C283.062 78.1829 283.143 78.7665 284.899 79.2457C285.578 79.3341 285.854 78.5118 285.614 78.0326Z" fill="#4B187A"></path><path d="M276.614 197.718C275.034 197.433 273.404 197.748 272.045 198.602C271.633 198.891 271.712 199.738 272.333 199.663C272.954 199.589 273.739 199.341 274.455 199.2C275.171 199.058 275.976 198.669 276.736 198.572C277.224 198.54 277.12 197.718 276.614 197.718Z" fill="#4B187A"></path><path d="M265.046 198.725C265.183 198.752 265.325 198.732 265.449 198.666C265.572 198.601 265.669 198.494 265.723 198.365C265.776 198.236 265.784 198.092 265.743 197.958C265.702 197.825 265.617 197.709 265.5 197.632C264.652 197.042 263.687 196.643 262.671 196.461C262.603 196.463 262.537 196.478 262.476 196.506C262.415 196.534 262.36 196.574 262.314 196.623C262.269 196.673 262.234 196.731 262.211 196.794C262.188 196.857 262.178 196.924 262.181 196.992C262.468 197.503 262.883 197.932 263.385 198.236C263.887 198.54 264.459 198.708 265.046 198.725Z" fill="#4B187A"></path><path d="M272.533 209.89C272.341 209.837 272.135 209.862 271.961 209.96C271.788 210.059 271.66 210.222 271.607 210.414C271.554 210.607 271.579 210.812 271.678 210.986C271.776 211.159 271.939 211.287 272.132 211.34C275 212.176 277.382 210.102 278.579 207.626C278.675 207.436 278.695 207.217 278.636 207.013C278.578 206.809 278.444 206.634 278.262 206.524C278.08 206.413 277.863 206.376 277.655 206.418C277.447 206.461 277.262 206.58 277.138 206.753C276.072 208.47 274.832 210.527 272.533 209.89Z" fill="#4B187A"></path><path d="M271.79 281.149C273.35 277.228 272.533 272.406 271.214 268.522C271.154 268.36 271.035 268.226 270.88 268.147C270.726 268.067 270.548 268.049 270.381 268.096C270.214 268.142 270.07 268.249 269.978 268.396C269.887 268.544 269.854 268.72 269.886 268.89C271.032 273.067 270.453 276.752 270.218 280.938C270.165 281.875 271.483 281.925 271.79 281.149Z" fill="#4B187A"></path><path d="M277.636 281.471C278.717 276.991 278.526 272.298 277.085 267.921C277.024 267.72 276.887 267.55 276.702 267.449C276.518 267.347 276.302 267.322 276.099 267.378C275.896 267.433 275.723 267.566 275.617 267.748C275.511 267.929 275.48 268.145 275.53 268.349C276.442 272.604 276.737 276.968 276.404 281.306C276.425 281.445 276.49 281.573 276.59 281.671C276.69 281.77 276.819 281.833 276.958 281.852C277.097 281.87 277.239 281.843 277.361 281.774C277.483 281.706 277.58 281.599 277.636 281.471Z" fill="#4B187A"></path><path d="M282.966 276.747C284.005 273.177 283.665 269.347 282.013 266.017C281.676 265.247 280.286 265.799 280.641 266.604C282.112 269.923 281.879 273.021 281.638 276.572C281.584 277.373 282.721 277.417 282.966 276.747Z" fill="#4B187A"></path><path d="M205.84 332.223C205.156 332.4 204.024 334.025 203.693 334.487C201.506 337.54 206.157 339.007 208.316 338.856C212.751 338.545 217.218 337.983 221.639 337.441C221.836 337.431 222.027 337.365 222.188 337.251C222.35 337.136 222.476 336.979 222.552 336.796C222.628 336.614 222.65 336.413 222.617 336.218C222.584 336.023 222.496 335.842 222.364 335.694C221.167 334.182 218.474 331.876 218.73 331.868C218.73 331.868 222.539 292.609 224.129 256.535C227.588 259.068 231.859 260.237 236.126 259.82C216.24 271.527 242.241 336.294 245.735 344.856C238.746 342.978 230.546 343.413 224.47 347.661C221.844 349.497 217.777 353.709 221.927 356.162C224.251 357.534 227.379 357.168 229.949 356.975C235.733 356.54 241.521 356.345 247.279 355.523C249.68 355.182 255.334 355.313 257.309 353.401C258.881 351.88 258.492 348.499 258.296 346.559C258.193 345.537 256.564 345.113 256.351 346.298C255.847 349.049 256.473 350.542 253.04 352.275C251.076 352.894 249.035 353.238 246.976 353.297C242.002 354.011 236.99 354.44 231.966 354.581C229.834 354.646 226.523 356.075 224.976 353.96C224.682 353.457 224.496 352.899 224.429 352.32C224.363 351.742 224.419 351.156 224.592 350.6C224.969 349.046 228.417 347.905 229.694 347.417C234.93 345.666 240.541 345.361 245.937 346.533C246.069 346.553 246.204 346.542 246.332 346.502C246.459 346.461 246.576 346.392 246.672 346.299C246.768 346.206 246.842 346.092 246.887 345.966C246.932 345.84 246.948 345.705 246.932 345.572C251.394 345.055 255.88 344.778 260.372 344.743C261.875 331.945 262.112 332.647 262.469 306.99C261.438 285.628 257.611 262.427 246.122 258.552C252.326 257.466 256.621 256.312 260.153 259.138C261.596 260.291 263.159 264.089 263.7 265.551C265.19 269.593 265.947 273.868 265.937 278.176C265.947 278.407 266.046 278.624 266.213 278.784C266.38 278.944 266.602 279.033 266.833 279.033C267.063 279.033 267.285 278.944 267.452 278.784C267.619 278.624 267.718 278.407 267.728 278.176C267.764 272.059 266.513 261.986 261.237 257.364C262.182 256.172 263.291 255.12 264.531 254.237C265.498 253.458 268.245 250.961 269.746 250.961C272.666 253.186 275.33 255.729 277.688 258.543C278.339 259.316 279.435 258.204 278.798 257.435C269.668 246.396 257.868 241.675 243.754 244.225C243.038 244.354 243.196 245.606 243.931 245.518C253.776 244.32 260.464 244.568 268.271 249.921C266.725 250.676 265.295 251.649 264.027 252.812C262.536 253.843 261.222 255.109 260.137 256.561C256.069 253.852 251.855 255.42 247.051 256.184C240.184 257.277 230.145 259.357 224.544 253.885C217.922 247.404 225.811 238.732 231.823 235.539C236.397 233.187 241.312 231.568 246.387 230.741C254.271 229.346 263.861 227.3 271.628 230.21C273.148 233.339 275.193 236.117 278.802 236.605C280.397 236.967 282.058 236.925 283.632 236.482C285.207 236.04 286.647 235.212 287.821 234.073C288.016 234.068 288.207 234.018 288.378 233.926C288.55 233.834 288.698 233.702 288.809 233.542C313.508 229.462 309.994 264.252 310.398 279.552C311.377 316.672 309.107 324.115 312.852 334.663C313.114 335.397 314.357 335.346 314.295 334.471C314.242 333.737 314.215 333.012 314.18 332.278C318.741 332.278 323.128 332.227 326.412 335.59C317.588 337.889 308.597 337.795 299.494 337.503C298.148 337.459 298.148 339.562 299.494 339.601C309.333 339.885 319.147 340.062 328.672 337.25C328.853 337.197 329.017 337.097 329.148 336.962C329.28 336.826 329.374 336.659 329.422 336.476C329.471 336.294 329.471 336.102 329.424 335.919C329.377 335.737 329.284 335.569 329.153 335.433C325.038 330.26 320.707 330.776 314.299 330.89C313.448 330.904 313.177 283.014 312.219 264.07C311.796 255.725 312.408 245.296 306.976 238.322C304.887 235.658 302.075 233.652 298.876 232.546C295.677 231.439 292.226 231.279 288.938 232.083C288.911 232.028 288.88 231.975 288.843 231.926C286.517 222.953 286.912 213.823 285.417 204.781C286.501 204.736 287.549 204.384 288.44 203.766C289.004 203.291 289.429 202.672 289.671 201.974C289.913 201.277 289.962 200.528 289.814 199.805C289.665 199.082 289.325 198.413 288.828 197.868C288.33 197.322 287.695 196.921 286.989 196.707C287.954 195.549 288.676 194.209 289.112 192.767C290.475 186.8 284.123 188.21 280.558 188.399C279.32 188.464 276.482 187.891 275.997 189.534C275.592 190.905 277.187 192.569 277.928 193.545C279.342 195.444 281.015 197.135 282.899 198.569C282.99 198.611 283.088 198.634 283.187 198.638C283.323 198.811 283.496 198.951 283.695 199.046C283.893 199.141 284.11 199.19 284.33 199.187C284.55 199.184 284.766 199.131 284.962 199.031C285.158 198.931 285.329 198.788 285.46 198.611C287.11 197.916 288.425 199.815 287.914 201.504C287.384 202.666 286.019 202.648 284.89 202.892C284.756 202.806 284.601 202.756 284.441 202.747C284.281 202.739 284.122 202.772 283.978 202.843C283.835 202.914 283.712 203.021 283.623 203.154C283.533 203.287 283.479 203.44 283.467 203.6C282.842 213.402 283.882 223.239 286.542 232.693C285.675 233.547 284.625 234.191 283.471 234.576C282.317 234.96 281.09 235.076 279.884 234.913C277.028 234.746 275.481 232.967 273.995 230.866C274.169 230.672 274.266 230.42 274.266 230.159C274.266 229.898 274.169 229.646 273.995 229.452C273.76 225.996 273.085 222.584 271.987 219.299C271.935 219.17 271.847 219.057 271.734 218.976C273.2 218.704 274.598 218.146 275.848 217.334C277.098 216.521 278.176 215.47 279.019 214.24C279.66 213.306 278.243 212.268 277.465 213.052C275.032 215.503 272.135 217.918 268.317 216.721C264.499 215.524 263.155 210.978 262.202 207.566C260.854 202.073 260.639 196.362 261.573 190.783C261.716 190.718 261.831 190.604 261.897 190.46C261.962 190.317 261.972 190.155 261.926 190.005C261.575 188.074 261.802 186.083 262.58 184.281C263.357 182.479 264.65 180.948 266.296 179.879C269.502 177.493 273.838 178.586 277.53 179.005C278.275 179.088 278.404 177.916 277.707 177.72C273.254 176.469 268.169 175.93 264.524 179.18C261.397 181.967 259.054 186.003 260.575 190.197C260.501 190.236 260.436 190.291 260.385 190.357C260.334 190.423 260.297 190.499 260.278 190.581C257.756 201.299 259.813 219.657 270.579 219.052C270.769 222.199 271.123 225.334 271.64 228.444C265.245 225.614 256.31 227.37 249.876 228.444C241.353 229.858 231.232 231.676 224.794 237.975C224.955 229.095 225.124 211.245 223.002 202.583C222.682 200.673 221.977 198.848 220.932 197.218C220.634 196.938 220.295 196.705 219.927 196.528C211.969 191.693 207.902 177.378 214.344 170.133C215.137 169.249 213.856 167.889 212.99 168.779C208.067 173.842 208.358 183.518 212.028 190.551C210.132 192.77 205.992 195.149 202.96 194.781C202.194 194.677 201.471 194.372 200.862 193.897C199.7 183.994 200.417 174.153 200.173 164.188C199.929 154.223 198.199 144.686 198.236 134.787C198.236 134.133 197.145 133.913 197.048 134.621C195.681 144.669 198.054 155.091 198.219 165.199C198.369 174.409 197.746 183.706 199.294 192.809C195.943 190.224 193.852 193.469 191.177 193.693C188.825 193.872 186.479 193.28 184.494 192.006C184.423 191.962 184.353 192.006 184.284 192.006C184.291 191.966 184.291 191.925 184.284 191.884C185.157 185.393 185.601 175.224 180.064 170.513C179.375 169.928 178.391 170.885 179.058 171.518C180.315 172.723 181.247 174.226 181.767 175.888C178.324 174.314 171.852 174.895 169.832 175.014C168.906 175.067 168.888 176.483 169.832 176.464C172.147 176.43 174.46 176.576 176.752 176.901C178.803 177.177 182.36 177.161 182.641 179.907C183.073 185.154 182.627 190.437 181.322 195.538C180.478 198.509 176.429 200.238 173.502 200.038C165.123 215.833 178.054 268.544 178.054 268.544C184.515 270.99 189.912 275.628 193.301 281.649C193.536 282.049 193.897 282.36 194.328 282.533C194.759 282.705 195.235 282.73 195.681 282.603C196.128 282.477 196.52 282.205 196.795 281.832C197.071 281.459 197.215 281.004 197.205 280.54L196.035 218.316C195.201 218.157 194.371 217.981 193.545 217.786C193.417 217.745 193.307 217.661 193.235 217.547C193.164 217.433 193.135 217.298 193.154 217.165C193.173 217.032 193.238 216.91 193.338 216.82C193.439 216.731 193.568 216.68 193.702 216.677C196.171 216.613 198.637 216.886 201.032 217.489C201.19 217.539 201.326 217.642 201.415 217.782C201.505 217.922 201.542 218.089 201.521 218.253C201.5 218.418 201.422 218.57 201.3 218.682C201.178 218.795 201.021 218.861 200.855 218.87C200.242 218.892 199.628 218.86 199.021 218.773L205.84 332.223ZM205.467 335.597C205.437 335.459 205.381 335.328 205.301 335.212C209.669 330.967 215.593 331.447 219.734 335.742C215.324 336.366 205.927 337.677 205.46 335.597H205.467Z" fill="#4B187A"></path><path d="M174.199 200.07C176.823 200.07 180.641 198.355 181.424 195.578C182.73 190.478 183.176 185.195 182.743 179.948C182.462 177.201 178.906 177.219 176.855 176.941C174.564 176.633 172.254 176.488 169.942 176.506C169.756 176.497 169.58 176.417 169.452 176.282C169.323 176.146 169.251 175.967 169.251 175.78C169.251 175.594 169.323 175.414 169.452 175.279C169.58 175.144 169.756 175.064 169.942 175.055C171.962 174.929 178.43 174.338 181.877 175.93C181.358 174.268 180.426 172.765 179.17 171.56C178.501 170.925 179.484 169.969 180.174 170.556C185.711 175.265 185.302 185.41 184.393 191.927C184.4 191.967 184.4 192.008 184.393 192.049H184.604C186.589 193.322 188.935 193.914 191.286 193.736C193.951 193.504 196.061 190.261 199.403 192.852C197.858 183.746 198.478 174.46 198.33 165.242C198.165 155.151 195.773 144.729 197.159 134.663C197.253 133.973 198.353 134.173 198.346 134.829C198.245 144.732 200.033 154.382 200.277 164.237C200.521 174.093 199.807 184.043 200.968 193.946C201.604 194.393 202.335 194.687 203.104 194.804C203.873 194.921 204.658 194.858 205.398 194.62C207.982 193.948 210.319 192.55 212.134 190.592C208.465 183.559 208.134 173.845 213.094 168.819C213.962 167.935 215.25 169.254 214.449 170.174C209.232 176.153 210.912 186.089 215.741 192.618C217.08 194.449 218.804 195.964 220.792 197.057C221.94 197.328 223.109 197.5 224.286 197.573C227.471 197.549 230.576 196.579 233.208 194.786C237.294 192.101 240.57 188.351 242.681 183.94C244.792 179.53 245.658 174.627 245.187 169.76C244.611 163.785 243.018 157.953 240.478 152.515C231.404 131.386 227.837 130.157 204.426 123.193C203.237 123.918 203.175 125.351 202.625 126.504C201.267 129.36 198.59 132.96 195.007 131.248C193.739 130.547 192.665 129.54 191.883 128.32C191.1 127.1 190.633 125.705 190.524 124.26C190.524 124.311 186.045 126.3 183.483 127.413C182.997 127.623 182.577 127.963 182.269 128.394C181.961 128.825 181.777 129.332 181.735 129.86C181.314 134.933 179.034 139.671 175.332 143.165C170.26 147.991 162.338 149.629 158.076 150.156C157.151 150.271 156.279 150.656 155.57 151.261C154.86 151.866 154.343 152.666 154.083 153.562C152.401 160.35 151.469 167.304 151.305 174.296C150.952 179.535 152.289 184.749 155.12 189.171C157.951 193.594 162.126 196.991 167.031 198.864C169.305 199.781 171.75 200.192 174.199 200.07Z" fill="#F56B0C"></path><path d="M285.368 185.209C285.52 185.201 285.665 185.14 285.778 185.037C285.891 184.934 285.964 184.795 285.985 184.644C286.005 184.492 285.973 184.338 285.893 184.209C285.812 184.079 285.689 183.981 285.545 183.932C282.396 182.807 278.992 182.607 275.734 183.356C273.435 184.02 270.658 185.366 270.333 187.925C270.25 188.59 271.217 188.751 271.521 188.249C274.747 183.002 280.528 185.076 285.368 185.209Z" fill="#4B187A"></path><path d="M280.144 180.054C274.989 179.927 264.736 181.515 264.915 188.542C264.932 189.196 266.016 189.416 266.13 188.708C267.178 182.165 275.26 182.342 280.31 181.263C281.009 181.11 280.82 180.07 280.144 180.054Z" fill="#4B187A"></path><path d="M292.008 325.769C291.939 327.043 292.292 328.305 293.013 329.358C295.633 332.4 304.29 331.555 307.648 331.106C309.027 330.929 309.105 328.739 307.648 328.877C303.359 329.435 299.002 329.134 294.83 327.993C294.26 326.463 294.03 324.826 294.157 323.197C293.702 314.769 294.956 285.708 295.136 277.25C295.136 277.079 295.069 276.916 294.948 276.796C294.828 276.675 294.665 276.608 294.494 276.608C294.324 276.608 294.161 276.675 294.041 276.796C293.92 276.916 293.853 277.079 293.853 277.25C293.364 289.184 293.039 301.123 292.76 313.072C288.915 313.072 269.746 312.95 264.19 311.646C264.49 321.873 264.31 334.86 264.112 338.897L267.806 341.291C267.93 341.675 268.043 342.069 268.192 342.427C268.192 342.427 267.405 348.918 278.353 348.315C289.301 347.712 292.597 346.282 293.327 340.95C293.502 336.953 292.942 332.959 291.676 329.164L292.008 325.769Z" fill="#4B187A"></path><path d="M268.314 206.788C268.427 206.718 268.517 206.617 268.574 206.496C268.631 206.376 268.652 206.241 268.635 206.109C268.617 205.977 268.562 205.853 268.475 205.752C268.389 205.65 268.275 205.576 268.147 205.538C267.468 205.352 266.711 205.503 267.065 205.101C266.733 204.394 267.97 201.488 268.126 200.532C268.162 200.384 268.143 200.229 268.075 200.094C268.007 199.959 267.892 199.852 267.753 199.794C267.613 199.735 267.457 199.728 267.313 199.774C267.168 199.82 267.045 199.915 266.964 200.044C266.551 200.733 266.284 201.5 266.179 202.297C265.94 203.325 265.782 204.371 265.707 205.425C265.611 206.742 267.3 207.269 268.314 206.788Z" fill="#4B187A"></path><path d="M270.48 195.142C269.949 195.589 270.533 196.348 271.109 196.226C271.861 195.982 272.637 195.824 273.424 195.754C274.163 195.823 274.885 196.008 275.566 196.303C275.717 196.33 275.872 196.314 276.015 196.257C276.157 196.2 276.281 196.105 276.372 195.981C276.463 195.857 276.517 195.711 276.529 195.558C276.541 195.405 276.51 195.251 276.439 195.115C275.198 193.219 271.988 193.872 270.48 195.142Z" fill="#4B187A"></path><path d="M266.05 195.858C266.192 195.935 266.355 195.964 266.515 195.942C266.675 195.919 266.823 195.845 266.938 195.731C267.052 195.618 267.127 195.47 267.152 195.31C267.176 195.151 267.148 194.987 267.072 194.845C266.619 193.975 265.405 193.77 264.531 193.607C264.039 193.491 263.526 193.503 263.04 193.64C262.554 193.778 262.111 194.037 261.753 194.394C261.69 194.484 261.655 194.59 261.652 194.699C261.648 194.808 261.678 194.916 261.735 195.009C261.793 195.102 261.876 195.176 261.976 195.222C262.075 195.268 262.186 195.284 262.294 195.268C263.576 195.005 264.91 195.215 266.05 195.858Z" fill="#4B187A"></path><path d="M215.847 175.527C220.873 174.112 225.784 172.085 228.953 167.746C229.496 167.003 228.246 166.002 227.66 166.75C224.596 170.687 220.026 172.501 215.49 174.211C214.682 174.513 214.983 175.772 215.847 175.527Z" fill="#4B187A"></path></svg>